<svg width="60" height="80" viewBox="0 0 60 80" xmlns="http://www.w3.org/2000/svg">
  <!-- Ancient stone block/pillar -->
  <defs>
    <linearGradient id="stoneGradient" x1="0%" y1="0%" x2="100%" y2="100%">
      <stop offset="0%" stop-color="#9CA3AF"/>
      <stop offset="30%" stop-color="#6B7280"/>
      <stop offset="70%" stop-color="#4B5563"/>
      <stop offset="100%" stop-color="#374151"/>
    </linearGradient>
    <pattern id="stoneTexture" patternUnits="userSpaceOnUse" width="8" height="8">
      <rect width="8" height="8" fill="#6B7280"/>
      <circle cx="2" cy="2" r="0.5" fill="#9CA3AF"/>
      <circle cx="6" cy="6" r="0.3" fill="#4B5563"/>
      <rect x="3" y="0" width="1" height="8" fill="#4B5563" opacity="0.3"/>
      <rect x="0" y="4" width="8" height="1" fill="#4B5563" opacity="0.3"/>
    </pattern>
  </defs>
  
  <!-- Main block structure -->
  <rect x="5" y="10" width="50" height="65" fill="url(#stoneGradient)" stroke="#374151" stroke-width="2"/>
  <rect x="5" y="10" width="50" height="65" fill="url(#stoneTexture)" opacity="0.3"/>
  
  <!-- Top cap -->
  <rect x="2" y="5" width="56" height="10" fill="url(#stoneGradient)" stroke="#374151" stroke-width="1"/>
  <rect x="2" y="5" width="56" height="10" fill="url(#stoneTexture)" opacity="0.2"/>
  
  <!-- Decorative carvings -->
  <rect x="10" y="20" width="40" height="3" fill="#4B5563"/>
  <rect x="15" y="30" width="30" height="2" fill="#4B5563"/>
  <rect x="10" y="55" width="40" height="3" fill="#4B5563"/>
  
  <!-- Ancient symbols/runes -->
  <circle cx="20" cy="40" r="3" fill="none" stroke="#374151" stroke-width="1"/>
  <path d="M 18 40 L 22 40 M 20 38 L 20 42" stroke="#374151" stroke-width="1"/>
  
  <rect x="35" y="37" width="6" height="6" fill="none" stroke="#374151" stroke-width="1"/>
  <circle cx="38" cy="40" r="1" fill="#374151"/>
  
  <!-- Weathering effects -->
  <path d="M 5 25 Q 10 24 15 25" stroke="#9CA3AF" stroke-width="1" fill="none" opacity="0.6"/>
  <path d="M 45 45 Q 50 44 55 45" stroke="#9CA3AF" stroke-width="1" fill="none" opacity="0.6"/>
  
  <!-- Shadow/depth -->
  <rect x="52" y="12" width="3" height="63" fill="#1F2937" opacity="0.4"/>
  <rect x="7" y="72" width="48" height="3" fill="#1F2937" opacity="0.4"/>
</svg>
