<svg width="100" height="20" viewBox="0 0 100 20" xmlns="http://www.w3.org/2000/svg">
  <defs>
    <linearGradient id="platformGradient" x1="0%" y1="0%" x2="0%" y2="100%">
      <stop offset="0%" style="stop-color:#8B4513;stop-opacity:1" />
      <stop offset="30%" style="stop-color:#A0522D;stop-opacity:1" />
      <stop offset="70%" style="stop-color:#654321;stop-opacity:1" />
      <stop offset="100%" style="stop-color:#5D4037;stop-opacity:1" />
    </linearGradient>
    <pattern id="woodGrain" x="0" y="0" width="20" height="8" patternUnits="userSpaceOnUse">
      <rect width="20" height="8" fill="url(#platformGradient)"/>
      <path d="M0,3 Q5,1 10,3 T20,3" stroke="#8D6E63" stroke-width="0.5" fill="none" opacity="0.6"/>
      <path d="M0,6 Q7,4 14,6 T20,6" stroke="#6D4C41" stroke-width="0.3" fill="none" opacity="0.4"/>
    </pattern>
  </defs>
  
  <!-- Main platform body -->
  <rect x="0" y="0" width="100" height="20" fill="url(#woodGrain)" rx="2"/>
  
  <!-- Top highlight -->
  <rect x="1" y="1" width="98" height="3" fill="#CD853F" opacity="0.7" rx="1"/>
  
  <!-- Side shadows -->
  <rect x="0" y="0" width="2" height="20" fill="#4A2C17" opacity="0.5" rx="2 0 0 2"/>
  <rect x="98" y="0" width="2" height="20" fill="#3E2315" opacity="0.7" rx="0 2 2 0"/>
  
  <!-- Bottom shadow -->
  <rect x="2" y="17" width="96" height="3" fill="#2D1810" opacity="0.6" rx="0 0 2 2"/>
  
  <!-- Wood planks division -->
  <line x1="33" y1="2" x2="33" y2="18" stroke="#5D4037" stroke-width="1" opacity="0.8"/>
  <line x1="66" y1="2" x2="66" y2="18" stroke="#5D4037" stroke-width="1" opacity="0.8"/>
  
  <!-- Nail details -->
  <circle cx="16" cy="10" r="1" fill="#444" opacity="0.8"/>
  <circle cx="50" cy="10" r="1" fill="#444" opacity="0.8"/>
  <circle cx="84" cy="10" r="1" fill="#444" opacity="0.8"/>
</svg>
